{"accessors" : [{"bufferView" : 0, "byteOffset" : 0, "componentType" : 5123, "count" : 1626, "type" : "SCALAR", "max" : [1350], "min" : [0]}, {"bufferView" : 1, "byteOffset" : 0, "componentType" : 5126, "count" : 1351, "type" : "VEC3", "max" : [26.700000762939453, 10.699999809265137, 100.4000015258789], "min" : [-25.5, -78.4000015258789, -76.19999694824219], "name" : "POSITION"}, {"bufferView" : 1, "byteOffset" : 12, "componentType" : 5126, "count" : 1351, "type" : "VEC3", "max" : [1, 0.39312317967414856, 0.4064483344554901], "min" : [0, 0, 0.003935939632356167], "name" : "COLOR_0"}, {"bufferView" : 1, "byteOffset" : 24, "componentType" : 5126, "count" : 1351, "type" : "VEC2", "max" : [0.9937170147895813, 0.9201020002365112], "min" : [0, 0], "name" : "TEXCOORD_0"}], "asset" : {"generator" : "Aspose.3D 22.7", "version" : "2.0"}, "buffers" : [{"uri" : "data:application/octet-stream;base64,", "byteLength" : 55292}], "bufferViews" : [{"buffer" : 0, "byteOffset" : 0, "byteLength" : 3252, "target" : 34963}, {"buffer" : 0, "byteOffset" : 3256, "byteLength" : 52032, "byteStride" : 32, "target" : 34962}], "materials" : [{"pbrMetallicRoughness" : {"baseColorFactor" : [1, 1, 1, 1], "metallicFactor" : 0, "roughnessFactor" : 1}, "emissiveFactor" : [0, 0, 0], "alphaMode" : "OPAQUE", "doubleSided" : false}], "meshes" : [{"primitives" : [{"attributes" : {"POSITION" : 1, "COLOR_0" : 2, "TEXCOORD_0" : 3}, "indices" : 0, "material" : 0, "mode" : 4}]}], "nodes" : [{"mesh" : 0, "name" : "Node #0"}], "scene" : 0, "scenes" : [{"nodes" : [0]}]}
